<svg width="21" height="23" viewBox="0 0 21 23" fill="none" xmlns="http://www.w3.org/2000/svg">
<path d="M10.2992 8.56443V5.40042H7.11777V4.09174H10.2992V0.927734H11.6079V4.09174H14.7651V5.40042H11.6079V8.56443H10.2992ZM5.83462 22.0723C5.35473 22.0723 4.94801 21.9044 4.61449 21.5684C4.28096 21.2324 4.11419 20.8244 4.11419 20.3444C4.11419 19.8709 4.28217 19.4669 4.61813 19.1323C4.95409 18.7977 5.3621 18.6304 5.84217 18.6304C6.32206 18.6304 6.72877 18.799 7.0623 19.136C7.39583 19.4731 7.5626 19.8795 7.5626 20.355C7.5626 20.8308 7.39462 21.2359 7.05866 21.5705C6.7227 21.9051 6.31468 22.0723 5.83462 22.0723ZM15.9809 22.0723C15.5027 22.0723 15.0975 21.9044 14.7654 21.5684C14.4333 21.2324 14.2672 20.8244 14.2672 20.3444C14.2672 19.8709 14.4345 19.4669 14.7691 19.1323C15.1036 18.7977 15.51 18.6304 15.9881 18.6304C16.4661 18.6304 16.8724 18.799 17.207 19.136C17.5415 19.4731 17.7088 19.8795 17.7088 20.355C17.7088 20.8308 17.5408 21.2359 17.2049 21.5705C16.8689 21.9051 16.4609 22.0723 15.9809 22.0723ZM0.103516 3.26773V1.95879H2.89094L7.23809 11.1836H14.4393C14.4994 11.1836 14.5529 11.1685 14.5998 11.1383C14.6465 11.1083 14.6865 11.0666 14.7198 11.0133L18.6276 4.09174H20.1035L16.0168 11.6055C15.8437 11.8944 15.6202 12.1256 15.3462 12.299C15.0722 12.4723 14.7749 12.559 14.4542 12.559H6.7852L5.43095 15.0659C5.37764 15.1461 5.37487 15.2329 5.42261 15.3263C5.47053 15.4199 5.54684 15.4667 5.65153 15.4667H17.7088V16.7754H5.76092C5.13362 16.7754 4.65815 16.5162 4.33452 15.9977C4.01089 15.4793 3.99448 14.955 4.2853 14.425L5.89842 11.4987L2.05885 3.26773H0.103516Z" fill="#A1A1A1"/>
</svg>
